<svg width="2263" height="1571" xmlns="http://www.w3.org/2000/svg" xmlns:xlink="http://www.w3.org/1999/xlink" xml:space="preserve" overflow="hidden"><g transform="translate(-1028 -841)"><path d="M1031.25 1694.74 3286.25 1694.74 3286.25 2408.97 1031.25 2408.97Z" fill="#FFC000" fill-rule="evenodd"/><path d="M1031.25 1692.45 1031.25 2408.97" stroke="#000000" stroke-width="4.58333" stroke-linejoin="round" stroke-miterlimit="10" fill="none" fill-rule="evenodd"/><path d="M3286.25 1692.45 3286.25 2408.97" stroke="#000000" stroke-width="4.58333" stroke-linejoin="round" stroke-miterlimit="10" fill="none" fill-rule="evenodd"/><path d="M1028.96 1694.74 3288.54 1694.74" stroke="#000000" stroke-width="4.58333" stroke-linejoin="round" stroke-miterlimit="10" fill="none" fill-rule="evenodd"/><path d="M0 0 332.452 430.681" stroke="#A6A6A6" stroke-width="91.6667" stroke-linecap="round" stroke-linejoin="round" stroke-miterlimit="10" stroke-dasharray="0 183.333" fill="none" fill-rule="evenodd" transform="matrix(1 0 0 -1 1680 2206.68)"/><path d="M0 0 85.6762 108.112" stroke="#C00000" stroke-width="91.6667" stroke-linecap="round" stroke-linejoin="round" stroke-miterlimit="10" stroke-dasharray="0 183.333" fill="none" fill-rule="evenodd" transform="matrix(1 0 0 -1 2012 1770.11)"/><path d="M1947.07 1385.22C1993.81 1341.41 2056.18 1317.73 2121.75 1318.9" stroke="#E97132" stroke-width="6.875" stroke-miterlimit="8" fill="none" fill-rule="evenodd"/><path d="M2126 1175.5C2224.58 1175.5 2320.02 1211.86 2395.66 1278.23" stroke="#E97132" stroke-width="6.875" stroke-miterlimit="8" fill="none" fill-rule="evenodd"/><path d="M2125.42 1625.91 1669 1037" stroke="#00B050" stroke-width="91.6667" stroke-linecap="round" stroke-linejoin="round" stroke-miterlimit="10" stroke-dasharray="0 183.333" fill="none" fill-rule="evenodd"/><path d="M6.875-4.33816e-06 6.87534 537.558-6.87466 537.558-6.875 4.33816e-06ZM20.6253 530.683 0.000360892 571.933-20.6247 530.683Z" fill="#7F7F7F" transform="matrix(1 0 0 -1 2126 1691.93)"/><path d="M0 0 571.093 736.864" stroke="#00B050" stroke-width="91.6667" stroke-linecap="round" stroke-linejoin="round" stroke-miterlimit="10" stroke-dasharray="0 183.333" fill="none" fill-rule="evenodd" transform="matrix(1 0 0 -1 2126 1623.86)"/><path d="M2116.86 1633.43 1695.54 1089.8C1691.66 1084.8 1692.57 1077.6 1697.58 1073.73 1702.58 1069.85 1709.78 1070.76 1713.65 1075.76L2134.98 1619.39C2138.85 1624.39 2137.94 1631.59 2132.94 1635.47 2127.94 1639.34 2120.74 1638.43 2116.86 1633.43ZM1684.44 1112.9 1669.5 1037.5 1738.79 1070.78Z" fill="#78206E"/><path d="M2442.16 1288.25 2447.75 1288.25 2445.52 1298.26 2457.84 1298.26 2456.95 1302.35 2444.63 1302.35 2441.03 1318.08C2440.32 1321.13 2439.88 1323.33 2439.69 1324.66 2439.5 1326 2439.4 1327.07 2439.4 1327.89 2439.4 1331.24 2440.8 1332.91 2443.58 1332.91 2444.77 1332.91 2446.03 1332.46 2447.37 1331.55 2448.71 1330.65 2450.29 1329.1 2452.13 1326.91L2454.48 1329.34C2452.13 1332.18 2449.87 1334.28 2447.69 1335.63 2445.52 1336.98 2443.24 1337.65 2440.86 1337.65 2435.22 1337.65 2432.39 1334.8 2432.39 1329.1 2432.39 1327.29 2432.62 1325.39 2433.08 1323.39L2437.86 1302.35 2431.06 1302.35 2431.66 1299.56C2433.26 1299.53 2434.47 1299.41 2435.29 1299.19 2436.11 1298.98 2436.8 1298.68 2437.36 1298.3 2437.91 1297.92 2438.42 1297.38 2438.88 1296.68 2439.34 1295.98 2439.78 1295.08 2440.22 1293.98 2440.65 1292.89 2441.3 1290.98 2442.16 1288.25Z" fill="#215F9A" fill-rule="evenodd"/><text fill="#000000" fill-opacity="0" font-family="Arial,Arial_MSFontService,sans-serif" font-size="49.4028" x="2431.06" y="1331.48">𝑡</text><path d="M2475.63 1316.11 2477.42 1316.11C2477.38 1317.19 2477.35 1318.15 2477.33 1319 2477.31 1319.85 2477.29 1320.67 2477.28 1321.47 2477.27 1322.28 2477.27 1323.07 2477.27 1323.85L2477.27 1346.11C2477.27 1346.72 2477.29 1347.24 2477.33 1347.68 2477.37 1348.12 2477.43 1348.49 2477.52 1348.79 2477.61 1349.1 2477.72 1349.36 2477.87 1349.57 2478.02 1349.79 2478.19 1349.97 2478.38 1350.13 2478.62 1350.36 2478.93 1350.54 2479.32 1350.67 2479.71 1350.8 2480.21 1350.9 2480.81 1350.99 2481.42 1351.08 2482.15 1351.15 2483 1351.2 2483.85 1351.25 2484.87 1351.28 2486.06 1351.3L2486.06 1353.85 2462.83 1353.85 2462.83 1351.3C2463.98 1351.26 2464.96 1351.22 2465.76 1351.17 2466.56 1351.12 2467.24 1351.05 2467.81 1350.96 2468.37 1350.87 2468.83 1350.78 2469.17 1350.67 2469.51 1350.56 2469.81 1350.43 2470.06 1350.27 2470.34 1350.1 2470.57 1349.91 2470.77 1349.7 2470.96 1349.5 2471.12 1349.24 2471.23 1348.93 2471.35 1348.61 2471.44 1348.23 2471.51 1347.78 2471.58 1347.33 2471.62 1346.78 2471.62 1346.11L2471.62 1325.11C2471.62 1324.35 2471.47 1323.81 2471.18 1323.5 2470.88 1323.18 2470.46 1323.03 2469.92 1323.03 2469.31 1323.03 2468.41 1323.34 2467.22 1323.97 2466.03 1324.59 2464.49 1325.52 2462.59 1326.75 2462.34 1326.3 2462.1 1325.85 2461.89 1325.4 2461.67 1324.95 2461.45 1324.49 2461.22 1324.02 2463.64 1322.7 2466.03 1321.37 2468.41 1320.05 2470.78 1318.74 2473.19 1317.42 2475.63 1316.11Z" fill="#215F9A" fill-rule="evenodd"/><text fill="#000000" fill-opacity="0" font-family="Arial,Arial_MSFontService,sans-serif" font-size="37.7344" x="2461.22" y="1349.13">1</text><path d="M2484.19 1262.53 2494.36 1271.32 2494.36 1273.68 2484.19 1282.47 2482.04 1280.04 2488.53 1274.4 2471.99 1274.4 2463.81 1274.4 2461.33 1274.4 2450.65 1274.4 2447.67 1274.4 2437.02 1274.4 2426.34 1274.4 2426.34 1270.6 2437.02 1270.6 2447.67 1270.6 2450.65 1270.6 2461.33 1270.6 2463.81 1270.6 2471.99 1270.6 2488.53 1270.6 2482.04 1264.96Z" fill="#215F9A" fill-rule="evenodd"/><path d="M1752.28 1285.75 1757.87 1285.75 1755.64 1295.76 1767.96 1295.76 1767.07 1299.85 1754.75 1299.85 1751.14 1315.58C1750.44 1318.63 1749.99 1320.83 1749.8 1322.16 1749.61 1323.5 1749.52 1324.57 1749.52 1325.39 1749.52 1328.74 1750.91 1330.41 1753.69 1330.41 1754.88 1330.41 1756.15 1329.96 1757.48 1329.05 1758.82 1328.15 1760.41 1326.6 1762.25 1324.41L1764.6 1326.84C1762.25 1329.68 1759.98 1331.78 1757.81 1333.13 1755.63 1334.48 1753.36 1335.15 1750.98 1335.15 1745.33 1335.15 1742.51 1332.3 1742.51 1326.6 1742.51 1324.79 1742.74 1322.89 1743.2 1320.89L1747.98 1299.85 1741.17 1299.85 1741.78 1297.06C1743.37 1297.03 1744.58 1296.91 1745.41 1296.69 1746.23 1296.48 1746.92 1296.18 1747.47 1295.8 1748.03 1295.42 1748.53 1294.88 1748.99 1294.18 1749.45 1293.48 1749.9 1292.58 1750.33 1291.48 1750.76 1290.39 1751.41 1288.48 1752.28 1285.75Z" fill="#78206E" fill-rule="evenodd"/><text fill="#000000" fill-opacity="0" font-family="Arial,Arial_MSFontService,sans-serif" font-size="49.4028" x="1741.17" y="1328.98">𝑡</text><path d="M1785.36 1313.41C1787.39 1313.41 1789.13 1313.64 1790.56 1314.1 1792 1314.56 1793.16 1315.18 1794.06 1315.96 1794.96 1316.74 1795.61 1317.68 1796.01 1318.77 1796.41 1319.86 1796.61 1321.05 1796.61 1322.31 1796.61 1323.08 1796.56 1323.78 1796.45 1324.44 1796.34 1325.09 1796.16 1325.74 1795.89 1326.37 1795.63 1327.01 1795.28 1327.65 1794.85 1328.29 1794.42 1328.94 1793.89 1329.62 1793.24 1330.34 1792.75 1330.97 1792.12 1331.69 1791.34 1332.51 1790.56 1333.33 1789.7 1334.21 1788.77 1335.15 1787.85 1336.08 1786.88 1337.06 1785.86 1338.08 1784.84 1339.09 1783.86 1340.1 1782.9 1341.09 1781.94 1342.09 1781.06 1343.06 1780.26 1343.99 1779.46 1344.93 1778.81 1345.79 1778.3 1346.57L1789.14 1346.57C1790.06 1346.57 1790.79 1346.54 1791.34 1346.47 1791.89 1346.4 1792.34 1346.25 1792.7 1346.02 1793.06 1345.78 1793.37 1345.43 1793.62 1344.95 1793.88 1344.47 1794.17 1343.81 1794.5 1342.97L1797.23 1342.97C1797.13 1344.36 1797.04 1345.75 1796.95 1347.16 1796.86 1348.56 1796.77 1349.96 1796.67 1351.35L1771.86 1351.35 1771.86 1349.82C1772.32 1348.77 1772.87 1347.73 1773.5 1346.7 1774.12 1345.68 1774.82 1344.64 1775.61 1343.58 1776.39 1342.53 1777.28 1341.44 1778.27 1340.32 1779.27 1339.19 1780.37 1338.03 1781.58 1336.82 1783.42 1334.98 1784.91 1333.41 1786.06 1332.11 1787.22 1330.82 1788.13 1329.66 1788.79 1328.64 1789.45 1327.63 1789.91 1326.69 1790.15 1325.83 1790.4 1324.97 1790.52 1324.05 1790.52 1323.08 1790.52 1322.08 1790.38 1321.16 1790.09 1320.32 1789.81 1319.48 1789.4 1318.77 1788.88 1318.18 1788.35 1317.6 1787.68 1317.14 1786.87 1316.81 1786.06 1316.47 1785.13 1316.31 1784.07 1316.31 1782.26 1316.31 1780.73 1316.8 1779.5 1317.79 1778.27 1318.77 1777.31 1320.21 1776.63 1322.08L1772.79 1322.08 1772.79 1316.37C1775.29 1315.33 1777.59 1314.58 1779.69 1314.11 1781.79 1313.64 1783.68 1313.41 1785.36 1313.41Z" fill="#78206E" fill-rule="evenodd"/><text fill="#000000" fill-opacity="0" font-family="Arial,Arial_MSFontService,sans-serif" font-size="37.9395" x="1771.86" y="1346.61">2</text><path d="M1796.23 1260.03 1806.4 1268.82 1806.4 1271.18 1796.23 1279.97 1794.08 1277.54 1800.57 1271.9 1784.03 1271.9 1775.85 1271.9 1772.41 1271.9 1760.77 1271.9 1759.71 1271.9 1748.09 1271.9 1736.45 1271.9 1736.45 1268.1 1748.09 1268.1 1759.71 1268.1 1760.77 1268.1 1772.41 1268.1 1775.85 1268.1 1784.03 1268.1 1800.57 1268.1 1794.08 1262.46Z" fill="#78206E" fill-rule="evenodd"/><path d="M2120.15 1040.78C2121.85 1040.78 2123.19 1041.34 2124.18 1042.46 2125.17 1043.58 2125.66 1045.05 2125.66 1046.86 2125.66 1048.29 2125.33 1049.88 2124.69 1051.64L2125.17 1051.8C2127.82 1048.07 2130.34 1045.31 2132.73 1043.51 2135.12 1041.72 2137.59 1040.82 2140.13 1040.82 2142.64 1040.82 2144.57 1041.54 2145.92 1042.99 2147.27 1044.43 2147.95 1046.44 2147.95 1049.01 2147.95 1050.71 2147.56 1053.13 2146.77 1056.26L2144.14 1066.88C2143.41 1069.82 2143.05 1071.9 2143.05 1073.12 2143.05 1074.2 2143.22 1074.98 2143.57 1075.47 2143.92 1075.96 2144.48 1076.2 2145.23 1076.2 2146.04 1076.2 2146.91 1075.87 2147.83 1075.21 2148.75 1074.54 2150.04 1073.28 2151.72 1071.42L2154.03 1073.69C2151.7 1076.17 2149.68 1077.99 2147.95 1079.14 2146.22 1080.29 2144.25 1080.86 2142.03 1080.86 2140.28 1080.86 2138.87 1080.23 2137.82 1078.98 2136.76 1077.72 2136.24 1076.12 2136.24 1074.17 2136.24 1072.42 2136.68 1069.84 2137.57 1066.43L2139.36 1059.42C2140.01 1056.88 2140.43 1055 2140.63 1053.79 2140.84 1052.57 2140.94 1051.59 2140.94 1050.83 2140.94 1048.96 2140.63 1047.62 2140.01 1046.8 2139.38 1045.97 2138.37 1045.56 2136.97 1045.56 2135.83 1045.56 2134.61 1046.01 2133.3 1046.92 2131.99 1047.82 2130.6 1049.19 2129.12 1051.01 2127.65 1052.83 2126.47 1054.6 2125.58 1056.32 2124.69 1058.04 2123.96 1060.15 2123.39 1062.66L2119.54 1080.21 2112.53 1080.21 2118.45 1054.52C2119.04 1051.92 2119.34 1049.92 2119.34 1048.52 2119.34 1047.44 2119.16 1046.65 2118.81 1046.17 2118.46 1045.68 2117.91 1045.44 2117.15 1045.44 2116.31 1045.44 2115.43 1045.78 2114.49 1046.47 2113.56 1047.16 2112.29 1048.41 2110.66 1050.22L2108.35 1047.95C2110.84 1045.36 2112.91 1043.51 2114.55 1042.42 2116.2 1041.33 2118.07 1040.78 2120.15 1040.78Z" fill="#7F7F7F" fill-rule="evenodd"/><text fill="#000000" fill-opacity="0" font-family="Arial,Arial_MSFontService,sans-serif" font-size="40.0815" x="2108.35" y="1075.85">𝑛</text><path d="M2144.93 1014.88 2155.1 1023.68 2155.1 1026.03 2144.93 1034.82 2142.78 1032.39 2149.27 1026.76 2138.3 1026.76 2124.55 1026.76 2113.98 1026.76 2113.98 1022.95 2124.55 1022.95 2138.3 1022.95 2149.27 1022.95 2142.78 1017.31Z" fill="#7F7F7F" fill-rule="evenodd"/><path d="M16.7353 16.0287 117.558 146.456 112.118 150.66 11.296 20.2334ZM5.94014 30.1667 0 0 27.6974 13.3479ZM122.914 136.522 128.854 166.689 101.156 153.341Z" fill="#E97132" transform="matrix(-1 0 0 1 2767.35 943.5)"/><path d="M2749.07 1043.98C2746.32 1043.98 2743.85 1045.09 2741.66 1047.32 2739.47 1049.55 2737.75 1052.56 2736.49 1056.34 2735.23 1060.12 2734.61 1063.89 2734.61 1067.65 2734.61 1070.46 2734.99 1072.56 2735.76 1073.95 2736.53 1075.34 2737.82 1076.04 2739.63 1076.04 2740.47 1076.04 2741.32 1075.85 2742.18 1075.49 2743.05 1075.12 2743.95 1074.54 2744.88 1073.73 2745.81 1072.92 2746.73 1071.93 2747.64 1070.77 2748.54 1069.61 2749.37 1068.44 2750.13 1067.26 2750.88 1066.09 2751.59 1064.7 2752.24 1063.09 2752.88 1061.48 2753.44 1059.54 2753.9 1057.27L2754.26 1055.53C2754.67 1053.58 2754.87 1051.75 2754.87 1050.02 2754.87 1047.91 2754.42 1046.38 2753.53 1045.42 2752.64 1044.46 2751.15 1043.98 2749.07 1043.98ZM2793.79 1040.82C2796.3 1040.82 2798.59 1040.97 2800.66 1041.26 2802.73 1041.56 2804.79 1042.07 2806.84 1042.8L2805.02 1051.32 2801.74 1051.32C2801.44 1048.91 2800.65 1047.09 2799.36 1045.84 2798.08 1044.6 2796.06 1043.98 2793.31 1043.98 2791.17 1043.98 2789.44 1044.53 2788.12 1045.62 2786.79 1046.72 2786.13 1048.15 2786.13 1049.94 2786.13 1050.91 2786.3 1051.77 2786.64 1052.51 2786.98 1053.25 2787.66 1054.07 2788.69 1054.96 2789.71 1055.85 2791.31 1056.95 2793.47 1058.25 2795.17 1059.27 2796.53 1060.21 2797.56 1061.06 2798.59 1061.91 2799.4 1062.76 2799.99 1063.59 2800.59 1064.43 2801.02 1065.32 2801.29 1066.25 2801.56 1067.18 2801.69 1068.31 2801.69 1069.63 2801.69 1072.04 2801.05 1074.1 2799.77 1075.81 2798.49 1077.53 2796.74 1078.81 2794.54 1079.64 2792.34 1080.48 2789.83 1080.9 2787.02 1080.9 2784.78 1080.9 2782.58 1080.73 2780.42 1080.39 2778.26 1080.06 2775.85 1079.48 2773.2 1078.67L2775.15 1069.84 2778.31 1069.84C2778.42 1072.43 2779.15 1074.39 2780.5 1075.71 2781.85 1077.04 2784 1077.7 2786.94 1077.7 2789.51 1077.7 2791.52 1077.12 2792.96 1075.98 2794.41 1074.83 2795.13 1073.2 2795.13 1071.09 2795.13 1069.88 2794.93 1068.83 2794.52 1067.95 2794.12 1067.07 2793.45 1066.23 2792.54 1065.42 2791.62 1064.61 2790.16 1063.59 2788.16 1062.38 2786.05 1061.11 2784.41 1059.96 2783.23 1058.93 2782.06 1057.91 2781.17 1056.79 2780.58 1055.59 2779.99 1054.39 2779.69 1053 2779.69 1051.44 2779.69 1049.3 2780.26 1047.43 2781.41 1045.82 2782.56 1044.22 2784.2 1042.98 2786.33 1042.12 2788.47 1041.25 2790.95 1040.82 2793.79 1040.82ZM2766.06 1022.26 2768.45 1022.26 2758.36 1067.12C2757.76 1069.77 2757.46 1071.77 2757.46 1073.12 2757.46 1074.2 2757.64 1074.98 2757.99 1075.47 2758.34 1075.96 2758.9 1076.2 2759.65 1076.2 2760.46 1076.2 2761.33 1075.87 2762.25 1075.21 2763.16 1074.54 2764.46 1073.28 2766.14 1071.42L2768.45 1073.69C2765.96 1076.31 2763.87 1078.16 2762.16 1079.24 2760.46 1080.32 2758.63 1080.86 2756.65 1080.86 2754.98 1080.86 2753.64 1080.31 2752.64 1079.2 2751.64 1078.09 2751.14 1076.62 2751.14 1074.78 2751.14 1073.29 2751.45 1071.71 2752.07 1070.04L2751.55 1069.88C2748.95 1073.66 2746.49 1076.43 2744.17 1078.18 2741.85 1079.94 2739.39 1080.82 2736.79 1080.82 2733.82 1080.82 2731.52 1079.7 2729.88 1077.46 2728.25 1075.21 2727.43 1072.07 2727.43 1068.01 2727.43 1063.37 2728.34 1058.9 2730.17 1054.62 2731.99 1050.34 2734.5 1046.96 2737.69 1044.49 2740.87 1042.01 2744.43 1040.78 2748.34 1040.78 2749.99 1040.78 2751.51 1040.95 2752.9 1041.28 2754.3 1041.62 2755.72 1042.21 2757.18 1043.05L2759.29 1033.69C2759.5 1032.79 2759.69 1031.81 2759.85 1030.73 2760.02 1029.65 2760.1 1028.7 2760.1 1027.89 2760.1 1027.08 2759.95 1026.47 2759.65 1026.05 2759.35 1025.63 2758.93 1025.32 2758.38 1025.13 2757.82 1024.95 2756.83 1024.81 2755.4 1024.73L2755.88 1022.62Z" fill="#E97132" fill-rule="evenodd"/><text fill="#000000" fill-opacity="0" font-family="Arial,Arial_MSFontService,sans-serif" font-size="58.6431" x="2727.43" y="1073.57">𝑑𝑠</text><path d="M2221.34 1212.06C2218.85 1212.06 2216.54 1213.17 2214.41 1215.39 2212.27 1217.6 2210.56 1220.6 2209.28 1224.38 2207.99 1228.17 2207.35 1232.04 2207.35 1236.02 2207.35 1238.74 2207.76 1240.77 2208.57 1242.1 2209.38 1243.42 2210.6 1244.08 2212.22 1244.08 2214.54 1244.08 2216.93 1242.72 2219.39 1239.99 2221.85 1237.26 2224.13 1233.46 2226.24 1228.6 2226.7 1225.79 2226.93 1223.3 2226.93 1221.14 2226.93 1218.06 2226.48 1215.78 2225.57 1214.29 2224.67 1212.81 2223.25 1212.06 2221.34 1212.06ZM2221.62 1208.86C2224.65 1208.86 2227.02 1209.81 2228.73 1211.7 2230.45 1213.59 2231.4 1216.36 2231.59 1220.01L2231.95 1219.97 2237.26 1209.51 2244.27 1209.51 2243.87 1211.58C2240.52 1216.12 2236.57 1221.7 2232.03 1228.32 2231.36 1233.48 2231.02 1237.12 2231.02 1239.26 2231.02 1241.04 2231.22 1242.32 2231.63 1243.09 2232.03 1243.86 2232.71 1244.24 2233.66 1244.24 2234.41 1244.24 2235.27 1243.93 2236.23 1243.29 2237.19 1242.66 2238.22 1241.68 2239.33 1240.35L2241.68 1242.54C2239.41 1244.97 2237.44 1246.64 2235.76 1247.55 2234.09 1248.45 2232.36 1248.9 2230.58 1248.9 2226.98 1248.9 2225.19 1246.28 2225.19 1241.04 2225.19 1239.88 2225.27 1238.6 2225.43 1237.19L2225.02 1237.19C2222.24 1241.35 2219.61 1244.34 2217.12 1246.17 2214.63 1247.99 2211.97 1248.9 2209.14 1248.9 2207.16 1248.9 2205.5 1248.34 2204.15 1247.2 2202.8 1246.07 2201.8 1244.56 2201.15 1242.68 2200.5 1240.8 2200.18 1238.76 2200.18 1236.54 2200.18 1231.71 2201.1 1227.12 2202.94 1222.78 2204.77 1218.45 2207.33 1215.04 2210.6 1212.57 2213.86 1210.1 2217.54 1208.86 2221.62 1208.86Z" fill="#E97132" fill-rule="evenodd"/><text fill="#000000" fill-opacity="0" font-family="Arial,Arial_MSFontService,sans-serif" font-size="40.041" x="2200.18" y="1243.9">𝛼</text><path d="M2263.07 1227.36 2264.86 1227.36C2264.82 1228.44 2264.79 1229.4 2264.77 1230.25 2264.75 1231.1 2264.73 1231.93 2264.72 1232.73 2264.71 1233.53 2264.71 1234.32 2264.71 1235.1L2264.71 1257.36C2264.71 1257.97 2264.73 1258.49 2264.77 1258.93 2264.81 1259.37 2264.87 1259.74 2264.96 1260.05 2265.05 1260.35 2265.16 1260.61 2265.31 1260.82 2265.46 1261.04 2265.63 1261.22 2265.82 1261.38 2266.06 1261.61 2266.37 1261.79 2266.76 1261.92 2267.15 1262.05 2267.65 1262.15 2268.25 1262.24 2268.86 1262.33 2269.59 1262.4 2270.44 1262.45 2271.29 1262.5 2272.31 1262.53 2273.5 1262.55L2273.5 1265.1 2250.27 1265.1 2250.27 1262.55C2251.42 1262.51 2252.4 1262.47 2253.2 1262.42 2254 1262.37 2254.68 1262.3 2255.25 1262.21 2255.81 1262.13 2256.27 1262.03 2256.61 1261.92 2256.95 1261.81 2257.25 1261.68 2257.5 1261.52 2257.78 1261.35 2258.01 1261.16 2258.21 1260.95 2258.4 1260.75 2258.56 1260.49 2258.67 1260.18 2258.79 1259.86 2258.88 1259.48 2258.95 1259.03 2259.02 1258.59 2259.06 1258.03 2259.06 1257.36L2259.06 1236.36C2259.06 1235.6 2258.91 1235.06 2258.62 1234.75 2258.32 1234.43 2257.9 1234.28 2257.36 1234.28 2256.75 1234.28 2255.85 1234.59 2254.66 1235.22 2253.47 1235.84 2251.93 1236.77 2250.03 1238 2249.78 1237.55 2249.54 1237.1 2249.33 1236.65 2249.11 1236.2 2248.89 1235.74 2248.65 1235.27 2251.08 1233.95 2253.47 1232.62 2255.85 1231.31 2258.22 1229.99 2260.63 1228.67 2263.07 1227.36Z" fill="#E97132" fill-rule="evenodd"/><text fill="#000000" fill-opacity="0" font-family="Arial,Arial_MSFontService,sans-serif" font-size="37.7344" x="2248.65" y="1260.38">1</text><path d="M2034.5 1358.95C2032.01 1358.95 2029.7 1360.06 2027.57 1362.28 2025.43 1364.49 2023.72 1367.49 2022.44 1371.27 2021.16 1375.06 2020.51 1378.93 2020.51 1382.91 2020.51 1385.63 2020.92 1387.66 2021.73 1388.98 2022.54 1390.31 2023.76 1390.97 2025.38 1390.97 2027.7 1390.97 2030.09 1389.61 2032.55 1386.88 2035.01 1384.15 2037.29 1380.35 2039.4 1375.49 2039.86 1372.68 2040.09 1370.19 2040.09 1368.03 2040.09 1364.95 2039.64 1362.67 2038.73 1361.18 2037.83 1359.7 2036.41 1358.95 2034.5 1358.95ZM2034.78 1355.75C2037.81 1355.75 2040.18 1356.7 2041.89 1358.59 2043.61 1360.48 2044.56 1363.25 2044.75 1366.9L2045.11 1366.86 2050.42 1356.4 2057.43 1356.4 2057.03 1358.47C2053.68 1363.01 2049.73 1368.59 2045.19 1375.21 2044.52 1380.37 2044.18 1384.01 2044.18 1386.15 2044.18 1387.93 2044.38 1389.21 2044.79 1389.98 2045.19 1390.75 2045.87 1391.13 2046.82 1391.13 2047.57 1391.13 2048.43 1390.81 2049.39 1390.18 2050.35 1389.55 2051.38 1388.57 2052.49 1387.24L2054.84 1389.43C2052.57 1391.86 2050.6 1393.53 2048.92 1394.44 2047.25 1395.34 2045.52 1395.79 2043.74 1395.79 2040.14 1395.79 2038.35 1393.17 2038.35 1387.93 2038.35 1386.77 2038.43 1385.49 2038.59 1384.08L2038.18 1384.08C2035.4 1388.24 2032.77 1391.23 2030.28 1393.06 2027.8 1394.88 2025.13 1395.79 2022.3 1395.79 2020.32 1395.79 2018.66 1395.23 2017.31 1394.09 2015.96 1392.96 2014.96 1391.45 2014.31 1389.57 2013.66 1387.69 2013.34 1385.65 2013.34 1383.43 2013.34 1378.6 2014.26 1374.01 2016.1 1369.67 2017.93 1365.34 2020.49 1361.93 2023.76 1359.46 2027.03 1356.99 2030.7 1355.75 2034.78 1355.75Z" fill="#E97132" fill-rule="evenodd"/><text fill="#000000" fill-opacity="0" font-family="Arial,Arial_MSFontService,sans-serif" font-size="40.041" x="2013.34" y="1390.79">𝛼</text><path d="M2075.85 1374.05C2077.88 1374.05 2079.61 1374.28 2081.05 1374.74 2082.48 1375.2 2083.65 1375.82 2084.55 1376.6 2085.45 1377.38 2086.09 1378.32 2086.5 1379.41 2086.9 1380.5 2087.1 1381.69 2087.1 1382.96 2087.1 1383.72 2087.04 1384.42 2086.93 1385.08 2086.83 1385.73 2086.64 1386.38 2086.38 1387.01 2086.11 1387.65 2085.77 1388.29 2085.34 1388.93 2084.91 1389.58 2084.37 1390.26 2083.73 1390.98 2083.24 1391.61 2082.6 1392.33 2081.82 1393.15 2081.04 1393.97 2080.19 1394.85 2079.26 1395.79 2078.33 1396.72 2077.36 1397.7 2076.34 1398.72 2075.33 1399.73 2074.34 1400.74 2073.39 1401.73 2072.43 1402.73 2071.55 1403.7 2070.75 1404.63 2069.95 1405.57 2069.29 1406.43 2068.79 1407.21L2079.63 1407.21C2080.54 1407.21 2081.28 1407.18 2081.82 1407.11 2082.37 1407.04 2082.82 1406.89 2083.18 1406.66 2083.55 1406.42 2083.85 1406.07 2084.11 1405.59 2084.36 1405.11 2084.65 1404.45 2084.99 1403.61L2087.71 1403.61C2087.61 1405 2087.52 1406.39 2087.43 1407.8 2087.34 1409.21 2087.25 1410.6 2087.15 1411.99L2062.34 1411.99 2062.34 1410.46C2062.81 1409.41 2063.36 1408.37 2063.98 1407.34 2064.61 1406.32 2065.31 1405.28 2066.09 1404.22 2066.87 1403.17 2067.76 1402.08 2068.76 1400.96 2069.75 1399.83 2070.86 1398.67 2072.07 1397.46 2073.9 1395.62 2075.4 1394.05 2076.55 1392.75 2077.7 1391.46 2078.61 1390.3 2079.27 1389.28 2079.94 1388.27 2080.39 1387.33 2080.64 1386.47 2080.88 1385.61 2081 1384.69 2081 1383.72 2081 1382.72 2080.86 1381.8 2080.58 1380.96 2080.29 1380.12 2079.89 1379.41 2079.36 1378.82 2078.83 1378.24 2078.17 1377.78 2077.35 1377.45 2076.54 1377.12 2075.61 1376.95 2074.56 1376.95 2072.74 1376.95 2071.22 1377.44 2069.99 1378.43 2068.76 1379.42 2067.8 1380.85 2067.12 1382.72L2063.28 1382.72 2063.28 1377.01C2065.78 1375.97 2068.08 1375.22 2070.18 1374.75 2072.28 1374.28 2074.17 1374.05 2075.85 1374.05Z" fill="#E97132" fill-rule="evenodd"/><text fill="#000000" fill-opacity="0" font-family="Arial,Arial_MSFontService,sans-serif" font-size="37.9395" x="2062.34" y="1407.25">2</text><path d="M9.11714-6.94055 342.623 431.154C346.456 436.189 345.482 443.379 340.446 447.212 335.411 451.045 328.222 450.071 324.389 445.035L-9.11714 6.94055C-12.9503 1.90529-11.9758-5.28398-6.94055-9.11714-1.90529-12.9503 5.28398-11.9758 9.11714-6.94055ZM353.917 408.156 368.208 483.68 299.214 449.799Z" fill="#7F7F7F" transform="matrix(-1 0 0 1 2048.71 1721.5)"/><path d="M9.0567-7.01923 658.492 830.927C662.369 835.929 661.457 843.126 656.455 847.003 651.453 850.88 644.256 849.968 640.379 844.966L-9.0567 7.01923C-12.9333 2.01736-12.0211-5.18008-7.01923-9.0567-2.01736-12.9333 5.18008-12.0211 9.0567-7.01923ZM669.586 807.831 684.531 883.229 615.246 849.947Z" fill="#215F9A" transform="matrix(-1 0 0 1 2697.03 887.5)"/></g></svg>