<svg width="1927" height="1796" xmlns="http://www.w3.org/2000/svg" xmlns:xlink="http://www.w3.org/1999/xlink" xml:space="preserve" overflow="hidden"><g transform="translate(-1326 -579)"><path d="M6.875-1.47528e-06 6.87535 1647.43C6.87535 1651.23 3.79731 1654.3 0.000354991 1654.3-3.7966 1654.3-6.87465 1651.23-6.87465 1647.43L-6.875 1.47528e-06C-6.875-3.79696-3.79696-6.875-1.47528e-06-6.875 3.79696-6.875 6.875-3.79696 6.875-1.47528e-06ZM20.6254 1640.56 0.000360892 1681.81-20.6246 1640.56Z" fill="#7F7F7F" transform="matrix(1 0 0 -1 2289 2303.81)"/><path d="M9.36843-6.59742 870.293 1215.93C873.937 1221.1 872.696 1228.25 867.522 1231.89 862.348 1235.54 855.2 1234.3 851.556 1229.12L-9.36843 6.59742C-13.0121 1.42338-11.7715-5.72478-6.59742-9.36843-1.42338-13.0121 5.72478-11.7715 9.36843-6.59742ZM882.435 1193.37 893.914 1269.37 826.224 1232.95Z" fill="#215F9A" transform="matrix(-1 0 0 1 3183.41 1035.5)"/><path d="M2280.04 2311.47 1419.12 1088.94C1415.48 1083.77 1416.72 1076.62 1421.89 1072.98 1427.07 1069.33 1434.21 1070.57 1437.86 1075.75L2298.78 2298.27C2302.42 2303.45 2301.18 2310.6 2296.01 2314.24 2290.84 2317.88 2283.69 2316.64 2280.04 2311.47ZM1406.98 1111.5 1395.5 1035.5 1463.19 1071.92Z" fill="#50164A"/><path d="M2300.96 1035.5 2300.96 1081.33C2300.96 1087.66 2295.83 1092.79 2289.5 1092.79 2283.17 1092.79 2278.04 1087.66 2278.04 1081.33L2278.04 1035.5C2278.04 1029.17 2283.17 1024.04 2289.5 1024.04 2295.83 1024.04 2300.96 1029.17 2300.96 1035.5ZM2300.96 1127.17 2300.96 1173C2300.96 1179.33 2295.83 1184.46 2289.5 1184.46 2283.17 1184.46 2278.04 1179.33 2278.04 1173L2278.04 1127.17C2278.04 1120.84 2283.17 1115.71 2289.5 1115.71 2295.83 1115.71 2300.96 1120.84 2300.96 1127.17ZM2300.96 1218.83 2300.96 1264.67C2300.96 1270.99 2295.83 1276.12 2289.5 1276.12 2283.17 1276.12 2278.04 1270.99 2278.04 1264.67L2278.04 1218.83C2278.04 1212.5 2283.17 1207.37 2289.5 1207.37 2295.83 1207.37 2300.96 1212.5 2300.96 1218.83ZM2300.96 1310.5 2300.96 1356.33C2300.96 1362.66 2295.83 1367.79 2289.5 1367.79 2283.17 1367.79 2278.04 1362.66 2278.04 1356.33L2278.04 1310.5C2278.04 1304.17 2283.17 1299.04 2289.5 1299.04 2295.83 1299.04 2300.96 1304.17 2300.96 1310.5ZM2300.96 1402.17 2300.96 1448C2300.96 1454.33 2295.83 1459.46 2289.5 1459.46 2283.17 1459.46 2278.04 1454.33 2278.04 1448L2278.04 1402.17C2278.04 1395.84 2283.17 1390.71 2289.5 1390.71 2295.83 1390.71 2300.96 1395.84 2300.96 1402.17ZM2300.96 1493.83 2300.96 1539.67C2300.96 1545.99 2295.83 1551.12 2289.5 1551.12 2283.17 1551.12 2278.04 1545.99 2278.04 1539.67L2278.04 1493.83C2278.04 1487.51 2283.17 1482.37 2289.5 1482.37 2295.83 1482.37 2300.96 1487.51 2300.96 1493.83ZM2300.96 1585.5 2300.96 1631.33C2300.96 1637.66 2295.83 1642.79 2289.5 1642.79 2283.17 1642.79 2278.04 1637.66 2278.04 1631.33L2278.04 1585.5C2278.04 1579.17 2283.17 1574.04 2289.5 1574.04 2295.83 1574.04 2300.96 1579.17 2300.96 1585.5ZM2300.96 1677.17 2300.96 1723C2300.96 1729.33 2295.83 1734.46 2289.5 1734.46 2283.17 1734.46 2278.04 1729.33 2278.04 1723L2278.04 1677.17C2278.04 1670.84 2283.17 1665.71 2289.5 1665.71 2295.83 1665.71 2300.96 1670.84 2300.96 1677.17ZM2300.96 1768.83 2300.96 1814.67C2300.96 1820.99 2295.83 1826.12 2289.5 1826.12 2283.17 1826.12 2278.04 1820.99 2278.04 1814.67L2278.04 1768.83C2278.04 1762.5 2283.17 1757.37 2289.5 1757.37 2295.83 1757.37 2300.96 1762.5 2300.96 1768.83ZM2300.96 1860.5 2300.96 1906.33C2300.96 1912.66 2295.83 1917.79 2289.5 1917.79 2283.17 1917.79 2278.04 1912.66 2278.04 1906.33L2278.04 1860.5C2278.04 1854.17 2283.17 1849.04 2289.5 1849.04 2295.83 1849.04 2300.96 1854.17 2300.96 1860.5ZM2300.96 1952.17 2300.96 1998C2300.96 2004.33 2295.83 2009.46 2289.5 2009.46 2283.17 2009.46 2278.04 2004.33 2278.04 1998L2278.04 1952.17C2278.04 1945.84 2283.17 1940.71 2289.5 1940.71 2295.83 1940.71 2300.96 1945.84 2300.96 1952.17ZM2300.96 2043.83 2300.96 2089.67C2300.96 2095.99 2295.83 2101.12 2289.5 2101.12 2283.17 2101.12 2278.04 2095.99 2278.04 2089.67L2278.04 2043.83C2278.04 2037.5 2283.17 2032.37 2289.5 2032.37 2295.83 2032.37 2300.96 2037.5 2300.96 2043.83ZM2300.96 2135.5 2300.96 2181.33C2300.96 2187.66 2295.83 2192.79 2289.5 2192.79 2283.17 2192.79 2278.04 2187.66 2278.04 2181.33L2278.04 2135.5C2278.04 2129.17 2283.17 2124.04 2289.5 2124.04 2295.83 2124.04 2300.96 2129.17 2300.96 2135.5ZM2300.96 2227.17 2300.96 2247.58C2300.96 2253.91 2295.83 2259.04 2289.5 2259.04 2283.17 2259.04 2278.04 2253.91 2278.04 2247.58L2278.04 2227.17C2278.04 2220.84 2283.17 2215.71 2289.5 2215.71 2295.83 2215.71 2300.96 2220.84 2300.96 2227.17ZM2323.88 2236.12 2289.5 2304.87 2255.12 2236.12Z" fill="#E97132"/><path d="M4.62599e-06-11.4583 836.62-11.458C842.949-11.458 848.079-6.32792 848.079 0.000342388 848.079 6.32861 842.949 11.4587 836.62 11.4587L-4.62599e-06 11.4583C-6.32827 11.4583-11.4583 6.32826-11.4583-4.62599e-06-11.4583-6.32827-6.32826-11.4583 4.62599e-06-11.4583ZM825.162-34.3747 893.912 0.000360892 825.162 34.3753Z" fill="#196B24" transform="matrix(-1 0 0 1 2289.41 1035.5)"/><path d="M2289.5 1024.04 3126.12 1024.04C3132.45 1024.04 3137.58 1029.17 3137.58 1035.5 3137.58 1041.83 3132.45 1046.96 3126.12 1046.96L2289.5 1046.96C2283.17 1046.96 2278.04 1041.83 2278.04 1035.5 2278.04 1029.17 2283.17 1024.04 2289.5 1024.04ZM3114.66 1001.13 3183.41 1035.5 3114.66 1069.88Z" fill="#196B24"/><path d="M2342.98 715.695C2344.68 715.695 2346.02 716.255 2347.01 717.377 2347.99 718.498 2348.49 719.964 2348.49 721.774 2348.49 723.206 2348.16 724.8 2347.51 726.556L2348 726.718C2350.65 722.99 2353.17 720.227 2355.56 718.43 2357.95 716.634 2360.42 715.735 2362.96 715.735 2365.47 715.735 2367.4 716.458 2368.75 717.904 2370.1 719.349 2370.78 721.355 2370.78 723.922 2370.78 725.624 2370.39 728.042 2369.6 731.176L2366.97 741.794C2366.24 744.739 2365.87 746.82 2365.87 748.036 2365.87 749.116 2366.05 749.9 2366.4 750.386 2366.75 750.873 2367.31 751.116 2368.06 751.116 2368.87 751.116 2369.74 750.785 2370.66 750.123 2371.57 749.461 2372.87 748.198 2374.55 746.333L2376.86 748.603C2374.53 751.089 2372.51 752.906 2370.78 754.054 2369.05 755.202 2367.08 755.776 2364.86 755.776 2363.1 755.776 2361.7 755.148 2360.65 753.892 2359.59 752.635 2359.07 751.035 2359.07 749.089 2359.07 747.333 2359.51 744.753 2360.4 741.349L2362.19 734.337C2362.83 731.798 2363.26 729.92 2363.46 728.704 2363.67 727.488 2363.77 726.502 2363.77 725.746 2363.77 723.881 2363.46 722.537 2362.83 721.713 2362.21 720.889 2361.2 720.477 2359.79 720.477 2358.66 720.477 2357.44 720.93 2356.13 721.835 2354.82 722.74 2353.43 724.104 2351.95 725.928 2350.48 727.752 2349.3 729.521 2348.41 731.237 2347.51 732.953 2346.79 735.067 2346.22 737.58L2342.37 755.128 2335.36 755.128 2341.27 729.434C2341.87 726.84 2342.17 724.841 2342.17 723.436 2342.17 722.355 2341.99 721.571 2341.64 721.085 2341.29 720.599 2340.73 720.355 2339.98 720.355 2339.14 720.355 2338.25 720.7 2337.32 721.389 2336.39 722.078 2335.11 723.327 2333.49 725.138L2331.18 722.868C2333.67 720.274 2335.73 718.43 2337.38 717.336 2339.03 716.242 2340.9 715.695 2342.98 715.695Z" fill="#7F7F7F" fill-rule="evenodd"/><text fill="#000000" fill-opacity="0" font-family="Arial,Arial_MSFontService,sans-serif" font-size="40.0815" x="2331.18" y="750.766">𝑛</text><path d="M2367.76 689.798 2377.93 698.592 2377.93 700.943 2367.76 709.737 2365.61 707.306 2372.1 701.672 2361.13 701.672 2347.37 701.672 2336.81 701.672 2336.81 697.863 2347.37 697.863 2361.13 697.863 2372.1 697.863 2365.61 692.229Z" fill="#7F7F7F" fill-rule="evenodd"/><path d="M2860.8 1607.01 2866.39 1607.01 2864.17 1617.02 2876.49 1617.02 2875.59 1621.11 2863.27 1621.11 2859.67 1636.84C2858.96 1639.89 2858.52 1642.09 2858.33 1643.42 2858.14 1644.76 2858.05 1645.84 2858.05 1646.65 2858.05 1650 2859.44 1651.67 2862.22 1651.67 2863.41 1651.67 2864.67 1651.22 2866.01 1650.31 2867.35 1649.41 2868.93 1647.86 2870.77 1645.67L2873.12 1648.11C2870.77 1650.94 2868.51 1653.04 2866.33 1654.39 2864.16 1655.74 2861.88 1656.41 2859.5 1656.41 2853.86 1656.41 2851.03 1653.56 2851.03 1647.86 2851.03 1646.05 2851.26 1644.15 2851.72 1642.15L2856.51 1621.11 2849.7 1621.11 2850.31 1618.32C2851.9 1618.29 2853.11 1618.17 2853.93 1617.95 2854.76 1617.74 2855.45 1617.44 2856 1617.06 2856.55 1616.68 2857.06 1616.14 2857.52 1615.44 2857.98 1614.74 2858.42 1613.84 2858.86 1612.74 2859.29 1611.65 2859.94 1609.74 2860.8 1607.01Z" fill="#215F9A" fill-rule="evenodd"/><text fill="#000000" fill-opacity="0" font-family="Arial,Arial_MSFontService,sans-serif" font-size="49.4028" x="2849.7" y="1650.24">𝑡</text><path d="M2894.27 1634.87 2896.06 1634.87C2896.02 1635.95 2895.99 1636.91 2895.97 1637.76 2895.95 1638.61 2895.94 1639.43 2895.93 1640.24 2895.92 1641.04 2895.91 1641.83 2895.91 1642.61L2895.91 1664.87C2895.91 1665.48 2895.93 1666 2895.97 1666.44 2896.01 1666.88 2896.07 1667.25 2896.16 1667.55 2896.25 1667.86 2896.37 1668.12 2896.51 1668.33 2896.66 1668.55 2896.83 1668.73 2897.02 1668.89 2897.26 1669.12 2897.57 1669.3 2897.96 1669.43 2898.35 1669.56 2898.85 1669.66 2899.46 1669.75 2900.06 1669.84 2900.79 1669.91 2901.64 1669.96 2902.49 1670.01 2903.51 1670.04 2904.7 1670.06L2904.7 1672.61 2881.47 1672.61 2881.47 1670.06C2882.62 1670.02 2883.6 1669.98 2884.4 1669.93 2885.2 1669.88 2885.88 1669.81 2886.45 1669.72 2887.01 1669.63 2887.47 1669.54 2887.81 1669.43 2888.15 1669.32 2888.45 1669.19 2888.7 1669.03 2888.98 1668.86 2889.21 1668.67 2889.41 1668.46 2889.6 1668.26 2889.76 1668 2889.88 1667.69 2889.99 1667.37 2890.09 1666.99 2890.15 1666.54 2890.22 1666.09 2890.26 1665.54 2890.26 1664.87L2890.26 1643.87C2890.26 1643.11 2890.11 1642.57 2889.82 1642.26 2889.52 1641.94 2889.1 1641.79 2888.56 1641.79 2887.95 1641.79 2887.05 1642.1 2885.86 1642.73 2884.67 1643.35 2883.13 1644.28 2881.23 1645.51 2880.98 1645.06 2880.75 1644.61 2880.53 1644.16 2880.32 1643.71 2880.09 1643.25 2879.86 1642.78 2882.28 1641.46 2884.68 1640.13 2887.05 1638.81 2889.42 1637.5 2891.83 1636.18 2894.27 1634.87Z" fill="#215F9A" fill-rule="evenodd"/><text fill="#000000" fill-opacity="0" font-family="Arial,Arial_MSFontService,sans-serif" font-size="37.7344" x="2879.86" y="1667.89">1</text><path d="M2902.83 1581.29 2913 1590.09 2913 1592.44 2902.83 1601.23 2900.68 1598.8 2907.17 1593.17 2890.63 1593.17 2882.45 1593.17 2879.97 1593.17 2869.29 1593.17 2866.31 1593.17 2855.66 1593.17 2844.98 1593.17 2844.98 1589.36 2855.66 1589.36 2866.31 1589.36 2869.29 1589.36 2879.97 1589.36 2882.45 1589.36 2890.63 1589.36 2907.17 1589.36 2900.68 1583.72Z" fill="#215F9A" fill-rule="evenodd"/><path d="M1680.4 1607.01 1686 1607.01 1683.77 1617.02 1696.09 1617.02 1695.2 1621.11 1682.88 1621.11 1679.27 1636.84C1678.57 1639.89 1678.12 1642.09 1677.93 1643.42 1677.74 1644.76 1677.65 1645.84 1677.65 1646.65 1677.65 1650 1679.04 1651.67 1681.82 1651.67 1683.01 1651.67 1684.27 1651.22 1685.61 1650.31 1686.95 1649.41 1688.54 1647.86 1690.37 1645.67L1692.72 1648.11C1690.37 1650.94 1688.11 1653.04 1685.94 1654.39 1683.76 1655.74 1681.48 1656.41 1679.11 1656.41 1673.46 1656.41 1670.64 1653.56 1670.64 1647.86 1670.64 1646.05 1670.87 1644.15 1671.33 1642.15L1676.11 1621.11 1669.3 1621.11 1669.91 1618.32C1671.5 1618.29 1672.71 1618.17 1673.53 1617.95 1674.36 1617.74 1675.05 1617.44 1675.6 1617.06 1676.16 1616.68 1676.66 1616.14 1677.12 1615.44 1677.58 1614.74 1678.03 1613.84 1678.46 1612.74 1678.89 1611.65 1679.54 1609.74 1680.4 1607.01Z" fill="#78206E" fill-rule="evenodd"/><text fill="#000000" fill-opacity="0" font-family="Arial,Arial_MSFontService,sans-serif" font-size="49.4028" x="1669.3" y="1650.24">𝑡</text><path d="M1713.49 1634.67C1715.52 1634.67 1717.25 1634.9 1718.69 1635.36 1720.13 1635.82 1721.29 1636.44 1722.19 1637.22 1723.09 1638 1723.74 1638.94 1724.14 1640.03 1724.54 1641.12 1724.74 1642.31 1724.74 1643.58 1724.74 1644.34 1724.69 1645.05 1724.58 1645.7 1724.47 1646.35 1724.29 1647 1724.02 1647.63 1723.76 1648.27 1723.41 1648.91 1722.98 1649.55 1722.55 1650.2 1722.02 1650.88 1721.37 1651.6 1720.88 1652.23 1720.25 1652.95 1719.47 1653.77 1718.69 1654.59 1717.83 1655.47 1716.9 1656.41 1715.98 1657.34 1715 1658.32 1713.99 1659.34 1712.97 1660.35 1711.99 1661.36 1711.03 1662.35 1710.07 1663.35 1709.19 1664.32 1708.39 1665.26 1707.59 1666.19 1706.94 1667.05 1706.43 1667.83L1717.27 1667.83C1718.19 1667.83 1718.92 1667.8 1719.47 1667.73 1720.01 1667.66 1720.47 1667.51 1720.83 1667.28 1721.19 1667.04 1721.5 1666.69 1721.75 1666.21 1722.01 1665.73 1722.3 1665.07 1722.63 1664.23L1725.36 1664.23C1725.26 1665.62 1725.16 1667.01 1725.08 1668.42 1724.99 1669.83 1724.9 1671.22 1724.8 1672.61L1699.98 1672.61 1699.98 1671.09C1700.45 1670.03 1701 1668.99 1701.62 1667.96 1702.25 1666.94 1702.95 1665.9 1703.73 1664.84 1704.52 1663.79 1705.4 1662.7 1706.4 1661.58 1707.4 1660.46 1708.5 1659.29 1709.71 1658.08 1711.55 1656.24 1713.04 1654.67 1714.19 1653.38 1715.35 1652.08 1716.25 1650.92 1716.92 1649.9 1717.58 1648.89 1718.04 1647.95 1718.28 1647.09 1718.52 1646.23 1718.65 1645.31 1718.65 1644.34 1718.65 1643.34 1718.5 1642.42 1718.22 1641.58 1717.94 1640.74 1717.53 1640.03 1717.01 1639.44 1716.48 1638.86 1715.81 1638.4 1715 1638.07 1714.19 1637.74 1713.26 1637.57 1712.2 1637.57 1710.38 1637.57 1708.86 1638.06 1707.63 1639.05 1706.4 1640.04 1705.44 1641.47 1704.76 1643.34L1700.92 1643.34 1700.92 1637.63C1703.42 1636.59 1705.72 1635.84 1707.82 1635.37 1709.92 1634.9 1711.81 1634.67 1713.49 1634.67Z" fill="#78206E" fill-rule="evenodd"/><text fill="#000000" fill-opacity="0" font-family="Arial,Arial_MSFontService,sans-serif" font-size="37.9395" x="1699.98" y="1667.87">2</text><path d="M1724.36 1581.29 1734.53 1590.09 1734.53 1592.44 1724.36 1601.23 1722.21 1598.8 1728.7 1593.17 1712.16 1593.17 1703.97 1593.17 1700.54 1593.17 1688.9 1593.17 1687.84 1593.17 1676.22 1593.17 1664.58 1593.17 1664.58 1589.36 1676.22 1589.36 1687.84 1589.36 1688.9 1589.36 1700.54 1589.36 1703.97 1589.36 1712.16 1589.36 1728.7 1589.36 1722.21 1583.72Z" fill="#78206E" fill-rule="evenodd"/><path d="M2384.99 1206.8C2386.93 1206.8 2388.34 1207.31 2389.2 1208.32 2390.07 1209.34 2390.5 1210.69 2390.5 1212.4 2390.5 1213.69 2390.27 1215.18 2389.81 1216.85 2389.35 1218.53 2388.7 1220.3 2387.86 1222.16 2387.03 1224.03 2386.03 1225.94 2384.87 1227.9 2383.7 1229.86 2382.42 1231.76 2381.02 1233.61 2379.61 1235.46 2378.11 1237.21 2376.52 1238.84 2374.92 1240.47 2373.27 1241.9 2371.55 1243.12 2369.84 1244.33 2368.09 1245.3 2366.32 1246.01 2364.55 1246.73 2362.79 1247.09 2361.04 1247.09 2360.25 1247.09 2359.6 1246.89 2359.07 1246.5 2358.54 1246.11 2358.12 1245.55 2357.79 1244.84 2357.47 1244.12 2357.24 1243.28 2357.1 1242.3 2356.97 1241.33 2356.9 1240.26 2356.9 1239.1 2356.9 1237.56 2357 1235.92 2357.19 1234.16 2357.38 1232.4 2357.62 1230.63 2357.92 1228.85L2359.62 1217.62C2359.73 1216.98 2359.81 1216.36 2359.88 1215.78 2359.95 1215.2 2359.98 1214.77 2359.98 1214.5 2359.98 1213.67 2359.85 1212.98 2359.58 1212.44 2359.31 1211.9 2358.85 1211.63 2358.2 1211.63 2357.69 1211.63 2357.13 1211.78 2356.54 1212.09 2355.94 1212.4 2355.34 1212.8 2354.73 1213.29 2354.13 1213.77 2353.54 1214.29 2352.97 1214.85 2352.4 1215.4 2351.88 1215.92 2351.39 1216.41L2349.45 1214.14C2350.28 1213.27 2351.17 1212.42 2352.12 1211.56 2353.07 1210.71 2354.07 1209.94 2355.12 1209.25 2356.17 1208.57 2357.28 1208.01 2358.44 1207.59 2359.6 1207.17 2360.79 1206.96 2362.01 1206.96 2363.04 1206.96 2363.87 1207.13 2364.52 1207.47 2365.17 1207.81 2365.68 1208.26 2366.04 1208.81 2366.41 1209.36 2366.66 1209.97 2366.79 1210.63 2366.93 1211.29 2366.99 1211.95 2366.99 1212.6 2366.99 1212.98 2366.98 1213.34 2366.95 1213.69 2366.93 1214.04 2366.89 1214.37 2366.83 1214.67L2364.56 1229.34C2364.32 1230.88 2364.12 1232.38 2363.95 1233.85 2363.79 1235.33 2363.71 1236.63 2363.71 1237.77 2363.71 1238.9 2363.78 1239.82 2363.91 1240.52 2364.05 1241.22 2364.31 1241.58 2364.68 1241.58 2365.57 1241.58 2366.7 1241.22 2368.05 1240.5 2369.4 1239.79 2370.82 1238.8 2372.3 1237.54 2373.79 1236.29 2375.27 1234.8 2376.76 1233.08 2378.25 1231.37 2379.58 1229.51 2380.77 1227.51 2381.96 1225.51 2382.93 1223.41 2383.67 1221.19 2384.41 1218.97 2384.78 1216.75 2384.78 1214.5 2384.78 1213.53 2384.58 1212.78 2384.16 1212.25 2383.74 1211.73 2383.08 1211.46 2382.19 1211.46 2381.06 1211.46 2380.01 1211.9 2379.05 1212.78 2378.09 1213.66 2377.1 1214.81 2376.07 1216.25L2373.76 1214.18C2374.41 1213.21 2375.17 1212.27 2376.05 1211.38 2376.93 1210.49 2377.86 1209.71 2378.85 1209.03 2379.83 1208.36 2380.85 1207.82 2381.91 1207.41 2382.96 1207.01 2383.99 1206.8 2384.99 1206.8Z" fill="#E97132" fill-rule="evenodd"/><text fill="#000000" fill-opacity="0" font-family="Arial,Arial_MSFontService,sans-serif" font-size="40.2842" x="2349.45" y="1242.05">𝑣</text><path d="M2410.86 1237.26C2409.67 1237.26 2408.57 1237.61 2407.57 1238.32 2406.56 1239.04 2405.48 1240.06 2404.33 1241.39 2403.8 1242.01 2403.32 1242.63 2402.87 1243.23 2402.42 1243.84 2402.01 1244.5 2401.65 1245.21 2401.29 1245.92 2400.97 1246.71 2400.68 1247.58 2400.4 1248.45 2400.15 1249.45 2399.94 1250.59 2399.66 1251.93 2399.45 1253.07 2399.29 1253.98 2399.14 1254.9 2399.06 1255.77 2399.06 1256.59 2399.06 1258.17 2399.42 1259.29 2400.16 1259.95 2400.89 1260.6 2402.07 1260.93 2403.69 1260.93 2404.82 1260.93 2405.88 1260.68 2406.87 1260.18 2407.85 1259.68 2408.75 1259 2409.55 1258.14 2410.35 1257.28 2411.06 1256.28 2411.69 1255.14 2412.31 1254 2412.83 1252.78 2413.25 1251.48 2413.67 1250.18 2413.99 1248.85 2414.22 1247.48 2414.44 1246.11 2414.56 1244.78 2414.56 1243.5 2414.56 1241.41 2414.27 1239.84 2413.69 1238.81 2413.12 1237.77 2412.17 1237.26 2410.86 1237.26ZM2397.27 1233.33C2398.7 1233.33 2399.81 1233.8 2400.6 1234.75 2401.39 1235.7 2401.78 1236.94 2401.78 1238.49 2401.78 1238.94 2401.75 1239.36 2401.68 1239.78 2401.61 1240.19 2401.49 1240.6 2401.31 1241.01L2401.72 1241.21C2403.64 1238.53 2405.52 1236.55 2407.36 1235.26 2409.21 1233.97 2411.15 1233.33 2413.18 1233.33 2415.5 1233.33 2417.29 1234.17 2418.53 1235.85 2419.77 1237.53 2420.39 1239.98 2420.39 1243.2 2420.39 1246.02 2419.95 1248.67 2419.08 1251.16 2418.21 1253.65 2417.04 1255.83 2415.55 1257.7 2414.07 1259.58 2412.34 1261.06 2410.38 1262.14 2408.42 1263.23 2406.34 1263.77 2404.16 1263.77 2402.63 1263.77 2401.31 1263.62 2400.19 1263.32 2399.06 1263.01 2398.13 1262.65 2397.39 1262.22 2397.21 1262.98 2397.02 1263.77 2396.82 1264.59 2396.61 1265.41 2396.42 1266.2 2396.23 1266.96 2396.05 1267.72 2395.89 1268.43 2395.78 1269.07 2395.66 1269.72 2395.6 1270.23 2395.6 1270.62 2395.6 1270.98 2395.65 1271.27 2395.76 1271.5 2395.87 1271.74 2396.06 1271.93 2396.35 1272.09 2396.63 1272.25 2397.01 1272.37 2397.48 1272.46 2397.94 1272.54 2398.53 1272.62 2399.23 1272.68L2399.15 1274.61 2388.83 1274.61 2395.98 1244.08C2396.22 1243.01 2396.38 1242.11 2396.48 1241.39 2396.58 1240.66 2396.63 1240.02 2396.63 1239.45 2396.63 1238.03 2396.05 1237.31 2394.9 1237.31 2394.55 1237.31 2394.19 1237.39 2393.84 1237.53 2393.49 1237.68 2393.12 1237.9 2392.72 1238.19 2392.31 1238.49 2391.88 1238.86 2391.4 1239.31 2390.92 1239.76 2390.39 1240.28 2389.8 1240.89L2387.78 1238.98C2388.76 1238.01 2389.65 1237.16 2390.46 1236.45 2391.27 1235.74 2392.05 1235.15 2392.8 1234.69 2393.56 1234.23 2394.29 1233.89 2395 1233.67 2395.71 1233.44 2396.47 1233.33 2397.27 1233.33Z" fill="#E97132" fill-rule="evenodd"/><text fill="#000000" fill-opacity="0" font-family="Arial,Arial_MSFontService,sans-serif" font-size="41.2793" x="2387.78" y="1269.45">𝑝</text><path d="M2418.42 1181.05 2428.59 1189.84 2428.59 1192.19 2418.42 1200.98 2416.27 1198.55 2422.75 1192.92 2406.22 1192.92 2398.03 1192.92 2394.46 1192.92 2382.7 1192.92 2381.9 1192.92 2370.95 1192.92 2370.14 1192.92 2358.39 1192.92 2346.63 1192.92 2346.63 1189.11 2358.39 1189.11 2370.14 1189.11 2370.95 1189.11 2381.9 1189.11 2382.7 1189.11 2394.46 1189.11 2398.03 1189.11 2406.22 1189.11 2422.75 1189.11 2416.27 1183.48Z" fill="#E97132" fill-rule="evenodd"/><path d="M2756.46 947.616C2758.41 947.616 2759.81 948.123 2760.68 949.136 2761.54 950.149 2761.98 951.507 2761.98 953.209 2761.98 954.506 2761.75 955.992 2761.29 957.667 2760.83 959.342 2760.18 961.112 2759.34 962.976 2758.5 964.841 2757.5 966.752 2756.34 968.711 2755.18 970.67 2753.9 972.575 2752.49 974.425 2751.09 976.276 2749.59 978.019 2747.99 979.653 2746.4 981.288 2744.75 982.713 2743.03 983.929 2741.31 985.145 2739.57 986.111 2737.8 986.827 2736.03 987.543 2734.27 987.901 2732.51 987.901 2731.73 987.901 2731.07 987.705 2730.55 987.313 2730.02 986.921 2729.59 986.367 2729.27 985.651 2728.95 984.935 2728.72 984.091 2728.58 983.118 2728.45 982.146 2728.38 981.079 2728.38 979.917 2728.38 978.377 2728.47 976.729 2728.66 974.972 2728.85 973.216 2729.09 971.447 2729.39 969.663L2731.09 958.437C2731.2 957.789 2731.29 957.174 2731.36 956.593 2731.43 956.012 2731.46 955.587 2731.46 955.317 2731.46 954.479 2731.32 953.79 2731.05 953.25 2730.78 952.709 2730.32 952.439 2729.68 952.439 2729.16 952.439 2728.61 952.595 2728.01 952.905 2727.42 953.216 2726.82 953.615 2726.21 954.101 2725.6 954.587 2725.02 955.107 2724.45 955.661 2723.88 956.215 2723.35 956.735 2722.87 957.221L2720.92 954.952C2721.76 954.087 2722.65 953.229 2723.6 952.378 2724.54 951.527 2725.54 950.757 2726.6 950.068 2727.65 949.379 2728.76 948.826 2729.92 948.407 2731.08 947.988 2732.27 947.779 2733.49 947.779 2734.51 947.779 2735.35 947.947 2736 948.285 2736.65 948.623 2737.15 949.069 2737.52 949.623 2737.88 950.176 2738.13 950.784 2738.27 951.446 2738.4 952.108 2738.47 952.763 2738.47 953.412 2738.47 953.79 2738.46 954.155 2738.43 954.506 2738.4 954.857 2738.36 955.182 2738.31 955.479L2736.04 970.15C2735.8 971.69 2735.59 973.196 2735.43 974.668 2735.27 976.141 2735.19 977.445 2735.19 978.579 2735.19 979.714 2735.26 980.633 2735.39 981.335 2735.53 982.038 2735.78 982.389 2736.16 982.389 2737.05 982.389 2738.17 982.031 2739.52 981.315 2740.87 980.599 2742.29 979.613 2743.78 978.356 2745.27 977.1 2746.75 975.614 2748.24 973.898 2749.72 972.183 2751.06 970.325 2752.25 968.326 2753.44 966.327 2754.4 964.219 2755.15 962.004 2755.89 959.788 2756.26 957.559 2756.26 955.317 2756.26 954.344 2756.05 953.594 2755.63 953.067 2755.21 952.541 2754.56 952.277 2753.67 952.277 2752.53 952.277 2751.49 952.716 2750.53 953.594 2749.57 954.472 2748.57 955.627 2747.55 957.059L2745.24 954.992C2745.89 954.02 2746.65 953.088 2747.53 952.196 2748.41 951.304 2749.34 950.521 2750.32 949.845 2751.31 949.17 2752.33 948.63 2753.38 948.224 2754.44 947.819 2755.46 947.616 2756.46 947.616Z" fill="#196B24" fill-rule="evenodd"/><text fill="#000000" fill-opacity="0" font-family="Arial,Arial_MSFontService,sans-serif" font-size="40.2842" x="2720.92" y="982.865">𝑣</text><path d="M2780.69 966.321 2785.44 966.321 2785.44 999.573 2800.94 999.573 2800.94 1004.06 2765.31 1004.06 2765.31 999.573 2780.69 999.573Z" fill="#196B24" fill-rule="evenodd"/><text fill="#000000" fill-opacity="0" font-family="Arial,Arial_MSFontService,sans-serif" font-size="37.7344" x="2765.31" y="999.339">⊥</text><path d="M2797.78 921.859 2807.95 930.653 2807.95 933.004 2797.78 941.798 2795.63 939.367 2802.11 933.733 2785.58 933.733 2777.39 933.733 2770.22 933.733 2761.26 933.733 2754.84 933.733 2745.91 933.733 2739.47 933.733 2730.53 933.733 2724.09 933.733 2715.15 933.733 2699.77 933.733 2699.77 929.924 2715.15 929.924 2724.09 929.924 2730.53 929.924 2739.47 929.924 2745.91 929.924 2754.84 929.924 2761.26 929.924 2770.22 929.924 2777.39 929.924 2785.58 929.924 2802.11 929.924 2795.63 924.29Z" fill="#196B24" fill-rule="evenodd"/><path d="M1745.7 960.258 1795.63 960.258 1795.63 965.649 1745.7 965.649Z" fill="#196B24" fill-rule="evenodd"/><text fill="#000000" fill-opacity="0" font-family="Arial,Arial_MSFontService,sans-serif" font-size="5.39014" x="1745.7" y="964.975">−</text><path d="M1858.25 947.087C1860.19 947.087 1861.6 947.594 1862.46 948.607 1863.33 949.62 1863.76 950.978 1863.76 952.68 1863.76 953.977 1863.53 955.463 1863.07 957.138 1862.61 958.813 1861.96 960.583 1861.13 962.447 1860.29 964.311 1859.29 966.223 1858.13 968.182 1856.97 970.14 1855.68 972.045 1854.28 973.896 1852.87 975.747 1851.37 977.489 1849.78 979.124 1848.19 980.758 1846.53 982.184 1844.81 983.4 1843.1 984.615 1841.36 985.581 1839.59 986.297 1837.82 987.013 1836.05 987.371 1834.3 987.371 1833.51 987.371 1832.86 987.175 1832.33 986.784 1831.81 986.392 1831.38 985.838 1831.06 985.122 1830.73 984.406 1830.5 983.562 1830.37 982.589 1830.23 981.616 1830.16 980.549 1830.16 979.387 1830.16 977.847 1830.26 976.199 1830.45 974.443 1830.64 972.687 1830.88 970.917 1831.18 969.134L1832.88 957.908C1832.99 957.259 1833.08 956.645 1833.14 956.064 1833.21 955.483 1833.24 955.057 1833.24 954.787 1833.24 953.95 1833.11 953.261 1832.84 952.72 1832.57 952.18 1832.11 951.91 1831.46 951.91 1830.95 951.91 1830.39 952.065 1829.8 952.376 1829.2 952.687 1828.6 953.085 1828 953.571 1827.39 954.058 1826.8 954.578 1826.23 955.132 1825.67 955.686 1825.14 956.206 1824.65 956.692L1822.71 954.422C1823.54 953.558 1824.44 952.7 1825.38 951.849 1826.33 950.998 1827.33 950.228 1828.38 949.539 1829.43 948.85 1830.54 948.296 1831.7 947.877 1832.87 947.459 1834.05 947.249 1835.27 947.249 1836.3 947.249 1837.13 947.418 1837.78 947.756 1838.43 948.093 1838.94 948.539 1839.3 949.093 1839.67 949.647 1839.92 950.255 1840.05 950.917 1840.19 951.579 1840.26 952.234 1840.26 952.882 1840.26 953.261 1840.24 953.625 1840.21 953.977 1840.19 954.328 1840.15 954.652 1840.09 954.949L1837.82 969.62C1837.58 971.16 1837.38 972.667 1837.22 974.139 1837.05 975.612 1836.97 976.915 1836.97 978.05 1836.97 979.185 1837.04 980.103 1837.18 980.806 1837.31 981.508 1837.57 981.859 1837.95 981.859 1838.84 981.859 1839.96 981.502 1841.31 980.786 1842.66 980.07 1844.08 979.083 1845.56 977.827 1847.05 976.571 1848.54 975.085 1850.02 973.369 1851.51 971.653 1852.85 969.796 1854.03 967.797 1855.22 965.797 1856.19 963.69 1856.93 961.474 1857.68 959.259 1858.05 957.03 1858.05 954.787 1858.05 953.815 1857.84 953.065 1857.42 952.538 1857 952.011 1856.34 951.748 1855.45 951.748 1854.32 951.748 1853.27 952.187 1852.31 953.065 1851.35 953.943 1850.36 955.098 1849.33 956.53L1847.02 954.463C1847.67 953.49 1848.44 952.558 1849.31 951.667 1850.19 950.775 1851.12 949.992 1852.11 949.316 1853.1 948.641 1854.12 948.1 1855.17 947.695 1856.22 947.29 1857.25 947.087 1858.25 947.087Z" fill="#196B24" fill-rule="evenodd"/><text fill="#000000" fill-opacity="0" font-family="Arial,Arial_MSFontService,sans-serif" font-size="40.2842" x="1822.71" y="982.336">𝑣</text><path d="M1882.48 965.792 1887.22 965.792 1887.22 999.044 1902.72 999.044 1902.72 1003.53 1867.1 1003.53 1867.1 999.044 1882.48 999.044Z" fill="#196B24" fill-rule="evenodd"/><text fill="#000000" fill-opacity="0" font-family="Arial,Arial_MSFontService,sans-serif" font-size="37.7344" x="1867.1" y="998.809">⊥</text><path d="M1899.56 921.329 1909.74 930.124 1909.74 932.474 1899.56 941.269 1897.42 938.837 1903.9 933.204 1887.36 933.204 1879.18 933.204 1872.01 933.204 1863.04 933.204 1856.63 933.204 1847.69 933.204 1841.25 933.204 1832.31 933.204 1825.88 933.204 1816.94 933.204 1801.56 933.204 1801.56 929.394 1816.94 929.394 1825.88 929.394 1832.31 929.394 1841.25 929.394 1847.69 929.394 1856.63 929.394 1863.04 929.394 1872.01 929.394 1879.18 929.394 1887.36 929.394 1903.9 929.394 1897.42 923.761Z" fill="#196B24" fill-rule="evenodd"/></g></svg>